<?xml version="1.0" standalone="no"?>
<!DOCTYPE svg PUBLIC "-//W3C//DTD SVG 20010904//EN"
 "http://www.w3.org/TR/2001/REC-SVG-20010904/DTD/svg10.dtd">
<svg version="1.0" xmlns="http://www.w3.org/2000/svg"
 width="16.000000pt" height="16.000000pt" viewBox="0 0 16.000000 16.000000"
 preserveAspectRatio="xMidYMid meet">
<metadata>
Created by potrace 1.11, written by Peter Selinger 2001-2013
</metadata>
<g transform="translate(0.000000,16.000000) scale(0.003125,-0.003125)"
fill="#000000" stroke="none">
<path d="M1185 4509 c-44 -4 -93 -9 -110 -12 -16 -4 -46 -9 -65 -12 -56 -10
-203 -61 -282 -99 -227 -108 -441 -315 -565 -546 -145 -269 -185 -617 -106
-910 55 -202 162 -399 293 -536 l43 -46 2 -806 c1 -879 -2 -829 56 -891 51
-54 86 -61 316 -61 l212 0 11 43 c20 78 33 112 62 171 236 472 886 522 1189
92 51 -73 102 -190 114 -264 l7 -43 216 1 c230 2 261 7 310 53 13 12 33 40 45
62 20 40 21 44 20 1265 l0 1225 -21 42 c-22 42 -65 80 -112 100 -14 5 -81 11
-150 12 -69 2 -126 4 -127 5 -1 1 -5 21 -8 45 -26 207 -92 382 -213 565 -60
91 -237 268 -328 328 -120 80 -304 163 -404 184 -169 34 -277 43 -405 33z
m297 -293 c467 -100 796 -514 783 -986 -5 -183 -23 -257 -103 -421 -107 -219
-311 -404 -536 -486 -206 -75 -450 -79 -656 -12 -343 113 -602 413 -663 770
-17 93 -16 273 2 356 60 295 244 542 511 686 192 103 446 139 662 93z"/>
<path d="M1230 4008 c-13 -14 -20 -36 -21 -62 -1 -23 -2 -66 -4 -96 -2 -30 -6
-122 -10 -205 -11 -245 -8 -228 -47 -268 -106 -108 -39 -294 112 -312 44 -6
53 -12 215 -156 154 -138 167 -147 196 -144 54 7 99 54 99 103 0 15 -32 59
-103 142 -12 14 -49 57 -82 95 -33 38 -72 83 -87 100 -16 16 -31 46 -34 65 -9
48 -31 88 -64 119 l-29 26 -7 180 c-4 99 -8 203 -9 230 -2 28 -4 76 -4 107 -1
45 -6 62 -23 78 -29 26 -72 26 -98 -2z"/>
<path d="M3303 2947 c-50 -10 -111 -60 -134 -111 -18 -39 -18 -91 -19 -1056 0
-748 3 -1025 12 -1053 20 -64 84 -120 151 -132 35 -7 35 -7 42 36 35 207 192
404 398 499 96 45 176 59 307 56 95 -2 129 -7 195 -30 240 -83 397 -259 465
-523 l11 -43 107 0 c130 0 168 10 216 55 67 63 65 44 65 635 0 441 -2 546 -14
600 -30 129 -95 235 -361 590 -265 353 -329 426 -403 461 -45 21 -56 22 -523
23 -262 0 -494 -2 -515 -7z m955 -401 c16 -8 113 -133 242 -312 242 -335 275
-385 283 -431 l6 -31 -524 0 -524 0 0 394 0 394 245 0 c190 0 251 -3 272 -14z"/>
<path d="M1615 943 c-186 -22 -351 -179 -386 -368 -46 -246 118 -483 366 -530
32 -6 130 -7 155 -2 218 49 365 216 375 427 9 173 -73 324 -225 414 -82 48
-187 70 -285 59z"/>
<path d="M3933 934 c-159 -41 -291 -167 -333 -318 -31 -112 -10 -265 50 -360
89 -139 227 -215 391 -214 206 1 382 138 437 340 6 20 10 72 9 115 -1 197
-119 360 -306 424 -71 25 -181 30 -248 13z"/>
</g>
</svg>
